<svg xmlns="http://www.w3.org/2000/svg" width="61.997" height="61.996" viewBox="0 0 61.997 61.996">
  <g id="_01" data-name="01" transform="translate(0.34 0.339)">
    <g id="Group_112" data-name="Group 112">
      <path id="Path_58" data-name="Path 58" d="M207.6,149.072a1.058,1.058,0,0,0-1.058-1.053h0a1.058,1.058,0,0,0-1.053,1.062c.016,3.636,3.095,6.251,7.611,6.6v3.149a1.058,1.058,0,0,0,2.116,0v-3.15c4.522-.355,7.595-2.97,7.595-6.6.017-3.594-2.933-6.4-7.595-7.32V131.756c2.8.285,5.476,1.713,5.487,4.482a1.058,1.058,0,0,0,1.058,1.053h0a1.058,1.058,0,0,0,1.053-1.062c-.016-3.634-3.091-6.248-7.6-6.6v-.793c0-.03-.006-.059-.009-.088v-2.268a1.058,1.058,0,0,0-2.115,0v2.92c0,.03.006.059.009.088v.141a9.7,9.7,0,0,0-5.055,1.733,5.966,5.966,0,0,0-2.548,4.867c-.017,3.6,2.936,6.4,7.6,7.322v10.005c-2.8-.283-5.483-1.712-5.5-4.483m13.09,0c0,2.414-2.2,4.17-5.479,4.482v-9.637c3.422.776,5.491,2.687,5.479,5.154m-13.082-12.844a3.854,3.854,0,0,1,1.688-3.17,7.635,7.635,0,0,1,3.8-1.312v9.639c-3.427-.775-5.5-2.686-5.487-5.156" transform="translate(-183.492 -111.997)" fill="#86bc25"/>
      <path id="Path_59" data-name="Path 59" d="M179.623,94.806a29.752,29.752,0,0,0-37.4,45.883l9.73-9.73" transform="translate(-132.596 -88.995)" fill="none" stroke="#86bc25" stroke-linecap="round" stroke-linejoin="round" stroke-width="2.5"/>
      <path id="Path_60" data-name="Path 60" d="M8.5,54.383A29.752,29.752,0,0,0,45.9,8.5l-9.032,9.032" transform="translate(5.789 1.123)" fill="none" stroke="#86bc25" stroke-linecap="round" stroke-linejoin="round" stroke-width="2.5"/>
    </g>
  </g>
</svg>
