<svg id="_02" data-name="02" xmlns="http://www.w3.org/2000/svg" xmlns:xlink="http://www.w3.org/1999/xlink" width="62.351" height="73.052" viewBox="0 0 62.351 73.052">
  <defs>
    <clipPath id="clip-path">
      <rect id="Rectangle_62" data-name="Rectangle 62" width="62.351" height="73.052" fill="#86bc25" stroke="#86bc25" stroke-width="0.4"/>
    </clipPath>
  </defs>
  <g id="Group_107" data-name="Group 107" clip-path="url(#clip-path)">
    <path id="Path_35" data-name="Path 35" d="M163.791,42.642a21.448,21.448,0,0,0-2.71,2.608.739.739,0,1,0,1.124.961,20.189,20.189,0,0,1,2.5-2.4.739.739,0,0,0-.91-1.165" transform="translate(-144.431 -38.135)" fill="#86bc25" stroke="#86bc25" stroke-width="0.4"/>
    <path id="Path_36" data-name="Path 36" d="M227.213,3.782A13.426,13.426,0,0,0,223.653,5.2a.739.739,0,0,0,.739,1.28,12.139,12.139,0,0,1,3.083-1.243.739.739,0,1,0-.262-1.455" transform="translate(-200.423 -3.384)" fill="#86bc25" stroke="#86bc25" stroke-width="0.4"/>
    <path id="Path_37" data-name="Path 37" d="M314.462.158A27.392,27.392,0,0,0,310.748.01a.739.739,0,0,0,.042,1.478,26.407,26.407,0,0,1,3.469.135.748.748,0,0,0,.1.007.739.739,0,0,0,.1-1.471" transform="translate(-278.289 0)" fill="#86bc25" stroke="#86bc25" stroke-width="0.4"/>
    <path id="Path_38" data-name="Path 38" d="M400.235,15.546a29.055,29.055,0,0,0-3.853-2.115.739.739,0,0,0-.624,1.341,27.114,27.114,0,0,1,3.568,1.941.739.739,0,1,0,.908-1.166" transform="translate(-354.857 -11.994)" fill="#86bc25" stroke="#86bc25" stroke-width="0.4"/>
    <path id="Path_39" data-name="Path 39" d="M455.375,69.975a.739.739,0,0,0-.942.453l-.438,1.248c-.49-1.445-1.04-2.752-1.074-2.833a.739.739,0,1,0-1.362.576c.008.018.52,1.236.986,2.589l-1.1-.832a.739.739,0,0,0-.894,1.177l2.856,2.169.007,0a.736.736,0,0,0,.47.172c.018,0,.036,0,.054-.006s.023.006.035.006a.739.739,0,0,0,.7-.495l1.153-3.285a.739.739,0,0,0-.453-.942" transform="translate(-404.165 -61.389)" fill="#86bc25" stroke="#86bc25" stroke-width="0.4"/>
    <path id="Path_40" data-name="Path 40" d="M9.667,86.94a.665.665,0,0,1-.541-.278L5.339,81.376h0L2.6,77.541c-.182-.259-.356-.522-.519-.783A14.487,14.487,0,0,1,1.2,75.094a13.775,13.775,0,0,1-1.06-3.6,11.361,11.361,0,0,1,.029-3.756,10.261,10.261,0,0,1,3.809-6.308A9.25,9.25,0,0,1,11.1,59.592a9.567,9.567,0,0,1,6.252,3.876A10.443,10.443,0,0,1,19.3,70.589a13.922,13.922,0,0,1-2.588,6.962l-6.5,9.109a.665.665,0,0,1-.541.279ZM6.42,80.6,9.666,85.13l5.958-8.352a12.6,12.6,0,0,0,2.345-6.3,9.245,9.245,0,0,0-1.7-6.225,8.235,8.235,0,0,0-5.381-3.345,8.032,8.032,0,0,0-6.1,1.577A8.922,8.922,0,0,0,1.48,67.976,10.043,10.043,0,0,0,1.458,71.3a12.44,12.44,0,0,0,.958,3.253,13.129,13.129,0,0,0,.8,1.509c.148.237.307.479.473.715l.543.764Z" transform="translate(0 -53.388)" fill="#86bc25" stroke="#86bc25" stroke-width="0.4"/>
    <path id="Path_41" data-name="Path 41" d="M37.483,108.973a6.5,6.5,0,1,1,6.5-6.5,6.5,6.5,0,0,1-6.5,6.5m0-11.661a5.165,5.165,0,1,0,5.165,5.165,5.171,5.171,0,0,0-5.165-5.165" transform="translate(-27.815 -86.154)" fill="#86bc25" stroke="#86bc25" stroke-width="0.4"/>
    <path id="Path_42" data-name="Path 42" d="M429.795,160.043a.665.665,0,0,1-.541-.278l-3.788-5.285h0l-2.737-3.834c-.183-.26-.357-.523-.519-.783a14.462,14.462,0,0,1-.881-1.665,13.772,13.772,0,0,1-1.06-3.6,11.359,11.359,0,0,1,.029-3.756,10.261,10.261,0,0,1,3.809-6.308,9.25,9.25,0,0,1,7.117-1.837,9.567,9.567,0,0,1,6.251,3.876,10.443,10.443,0,0,1,1.948,7.121,13.922,13.922,0,0,1-2.588,6.963l-6.5,9.109a.665.665,0,0,1-.541.279Zm-3.246-6.338,3.245,4.528,5.958-8.352a12.6,12.6,0,0,0,2.345-6.3,9.246,9.246,0,0,0-1.7-6.225,8.235,8.235,0,0,0-5.381-3.345,8.031,8.031,0,0,0-6.1,1.577,8.923,8.923,0,0,0-3.311,5.492,10.042,10.042,0,0,0-.023,3.321,12.447,12.447,0,0,0,.958,3.253,13.128,13.128,0,0,0,.8,1.509c.147.237.307.478.473.715l.543.764Z" transform="translate(-377.115 -119.007)" fill="#86bc25" stroke="#86bc25" stroke-width="0.4"/>
    <path id="Path_43" data-name="Path 43" d="M457.611,182.077a6.5,6.5,0,1,1,6.5-6.5,6.5,6.5,0,0,1-6.5,6.5m0-11.661a5.165,5.165,0,1,0,5.165,5.165,5.171,5.171,0,0,0-5.165-5.165" transform="translate(-404.93 -151.774)" fill="#86bc25" stroke="#86bc25" stroke-width="0.4"/>
    <path id="Path_44" data-name="Path 44" d="M487.015,374.972a3.142,3.142,0,0,1-2.043-5.529.665.665,0,1,1,.866,1.01,1.812,1.812,0,1,0,2.338-.014.665.665,0,1,1,.854-1.021,3.142,3.142,0,0,1-2.015,5.553" transform="translate(-434.333 -331.459)" fill="#86bc25" stroke="#86bc25" stroke-width="0.4"/>
    <path id="Path_45" data-name="Path 45" d="M66.888,301.065A3.142,3.142,0,0,1,65,295.415a.666.666,0,0,1,.8,1.062,1.812,1.812,0,1,0,2.234.043.665.665,0,1,1,.843-1.03,3.141,3.141,0,0,1-1.988,5.575" transform="translate(-57.219 -265.049)" fill="#86bc25" stroke="#86bc25" stroke-width="0.4"/>
    <path id="Path_46" data-name="Path 46" d="M199.721,162.584a.662.662,0,0,1-.33-.088,27.178,27.178,0,0,0-25.038-.962.665.665,0,0,1-.57-1.2,28.51,28.51,0,0,1,26.268,1.009.666.666,0,0,1-.331,1.243" transform="translate(-155.65 -141.471)" fill="#86bc25" stroke="#86bc25" stroke-width="0.4"/>
    <path id="Path_47" data-name="Path 47" d="M46.45,325.179A28.463,28.463,0,0,1,22.6,281.185a.665.665,0,0,1,1.115.727,27.122,27.122,0,1,0,48.24,5.551.665.665,0,1,1,1.251-.454A28.466,28.466,0,0,1,46.45,325.179" transform="translate(-16.15 -252.127)" fill="#86bc25" stroke="#86bc25" stroke-width="0.4"/>
    <path id="Path_48" data-name="Path 48" d="M158.093,214.523c-4.278,0-8.267-3.015-11.234-8.489-2.9-5.345-4.491-12.437-4.491-19.97s1.595-14.624,4.491-19.969c2.966-5.474,6.956-8.489,11.234-8.489s8.267,3.015,11.234,8.489c2.9,5.345,4.491,12.437,4.491,19.969s-1.595,14.624-4.491,19.97c-2.966,5.474-6.956,8.489-11.234,8.489m0-55.586c-3.767,0-7.341,2.767-10.063,7.792-2.793,5.154-4.33,12.021-4.33,19.335s1.538,14.182,4.33,19.335c2.723,5.025,6.3,7.792,10.063,7.792s7.341-2.767,10.063-7.792c2.793-5.154,4.33-12.02,4.33-19.335s-1.538-14.182-4.33-19.335c-2.723-5.025-6.3-7.792-10.063-7.792" transform="translate(-127.792 -141.47)" fill="#86bc25" stroke="#86bc25" stroke-width="0.4"/>
    <path id="Path_49" data-name="Path 49" d="M129.865,551.793a.663.663,0,0,1-.446-.172c-4.663-4.214-12.21-6.729-20.186-6.729s-15.522,2.515-20.186,6.729a.665.665,0,0,1-.892-.988,26.322,26.322,0,0,1,9.1-5.154,38.359,38.359,0,0,1,23.957,0,26.321,26.321,0,0,1,9.1,5.154.666.666,0,0,1-.446,1.159" transform="translate(-78.933 -487.911)" fill="#86bc25" stroke="#86bc25" stroke-width="0.4"/>
    <path id="Path_50" data-name="Path 50" d="M138.4,276.963a34.444,34.444,0,0,1-17.65-4.54.665.665,0,0,1,.691-1.138,33.1,33.1,0,0,0,16.96,4.346,34.529,34.529,0,0,0,14.365-2.971.665.665,0,1,1,.557,1.209,35.865,35.865,0,0,1-14.923,3.093" transform="translate(-108.101 -243.424)" fill="#86bc25" stroke="#86bc25" stroke-width="0.4"/>
    <path id="Path_51" data-name="Path 51" d="M74.243,430.4H18.657a.665.665,0,0,1,0-1.331H74.243a.665.665,0,0,1,0,1.331" transform="translate(-16.15 -385.145)" fill="#86bc25" stroke="#86bc25" stroke-width="0.4"/>
    <path id="Path_52" data-name="Path 52" d="M290.124,214.523a.665.665,0,0,1-.665-.665V158.271a.665.665,0,1,1,1.331,0v55.586a.665.665,0,0,1-.665.665" transform="translate(-259.824 -141.47)" fill="#86bc25" stroke="#86bc25" stroke-width="0.4"/>
  </g>
</svg>
