<svg xmlns="http://www.w3.org/2000/svg" width="74.314" height="60.382" viewBox="0 0 74.314 60.382">
  <g id="_04" data-name="04" transform="translate(0.279 -0.01)">
    <circle id="Ellipse_43" data-name="Ellipse 43" cx="8.762" cy="8.762" r="8.762" transform="translate(2.86 1.01)" fill="none" stroke="#86bc25" stroke-linejoin="round" stroke-width="2"/>
    <path id="Path_75" data-name="Path 75" d="M182.767,441.158s-.176,0-.1-7.894" transform="translate(-160.937 -381.766)" fill="none" stroke="#86bc25" stroke-linecap="round" stroke-linejoin="round" stroke-width="2"/>
    <path id="Path_76" data-name="Path 76" d="M8.5,193.207a14.468,14.468,0,0,1,2.2-.65c4.208-.857,7.4-.857,13.369,0s11.322,4.9,11.578,11.11l.434,10.525,10.546,1.48a3.75,3.75,0,0,1,3.126,4.355q-.016.089-.035.177a3.476,3.476,0,0,1-3.827,2.654l-14.273-1.937a5.354,5.354,0,0,1-4.63-5.114l-.442-12.359" transform="translate(-7.49 -169.104)" fill="none" stroke="#86bc25" stroke-linecap="round" stroke-linejoin="round" stroke-width="2"/>
    <path id="Path_77" data-name="Path 77" d="M217.126,52.251V37.976a4.7,4.7,0,0,1,4.7-4.7h37.83a4.7,4.7,0,0,1,4.7,4.7V64.261a4.7,4.7,0,0,1-4.7,4.7H223.7" transform="translate(-191.318 -29.322)" fill="none" stroke="#86bc25" stroke-linecap="round" stroke-linejoin="round" stroke-width="2"/>
    <line id="Line_29" data-name="Line 29" x2="41.572" transform="translate(31.428 33.219)" fill="none" stroke="#86bc25" stroke-linecap="round" stroke-linejoin="round" stroke-width="2"/>
    <rect id="Rectangle_64" data-name="Rectangle 64" width="7.653" height="6.955" transform="translate(45.595 39.69)" fill="none" stroke="#86bc25" stroke-linecap="round" stroke-linejoin="round" stroke-width="2"/>
    <line id="Line_30" data-name="Line 30" x2="28.867" transform="translate(44.167 46.795)" fill="none" stroke="#86bc25" stroke-linecap="round" stroke-linejoin="round" stroke-width="2"/>
    <path id="Path_78" data-name="Path 78" d="M377.124,87.16a6.03,6.03,0,1,1-6.03-6.03A6.03,6.03,0,0,1,377.124,87.16Z" transform="translate(-321.673 -71.487)" fill="none" stroke="#86bc25" stroke-linecap="round" stroke-linejoin="round" stroke-width="2"/>
    <path id="Path_79" data-name="Path 79" d="M342.8,202.656c0-4.791,2.03-10.385,8.676-10.385s8.676,5.594,8.676,10.385" transform="translate(-302.057 -169.418)" fill="none" stroke="#86bc25" stroke-linecap="round" stroke-linejoin="round" stroke-width="2"/>
  </g>
</svg>
