<svg id="_05" data-name="05" xmlns="http://www.w3.org/2000/svg" xmlns:xlink="http://www.w3.org/1999/xlink" width="78.764" height="60" viewBox="0 0 78.764 60">
  <defs>
    <clipPath id="clip-path">
      <rect id="Rectangle_70" data-name="Rectangle 70" width="78.764" height="60" fill="#86bc25" stroke="#fff" stroke-width="0.6"/>
    </clipPath>
  </defs>
  <g id="Group_123" data-name="Group 123" clip-path="url(#clip-path)">
    <path id="Path_318" data-name="Path 318" d="M18.07,0c6.023,0,10.656,5.328,10.656,11.351a11.149,11.149,0,0,1-4.865,9.5,15.039,15.039,0,0,1,4.865,1.622V21.313c0-6.023,4.4-11.351,10.656-11.351,6.023,0,10.656,5.328,10.656,11.351v1.158a15.726,15.726,0,0,1,4.633-1.622,11.532,11.532,0,0,1-4.633-9.5C50.039,5.328,54.44,0,60.7,0S71.351,5.328,71.351,11.351a11.532,11.532,0,0,1-4.633,9.5A14.87,14.87,0,0,1,78.765,35.212V47.259a2.99,2.99,0,0,1-2.78,2.78H57.452V57.22A2.989,2.989,0,0,1,54.672,60H24.093a2.817,2.817,0,0,1-2.78-2.78V50.039H2.78A2.817,2.817,0,0,1,0,47.259V35.212A14.644,14.644,0,0,1,12.046,20.849a11.741,11.741,0,0,1-4.865-9.5A11.125,11.125,0,0,1,18.07,0M30.116,26.873h0a13.265,13.265,0,0,0-8.8-3.707H14.595A12.066,12.066,0,0,0,2.78,35.212V47.259H21.313V45.174A14.644,14.644,0,0,1,33.359,30.811a9.051,9.051,0,0,1-3.243-3.938m18.533,0a9.051,9.051,0,0,1-3.243,3.938A14.87,14.87,0,0,1,57.452,45.174v2.085H75.985V35.212A12.111,12.111,0,0,0,63.938,23.166H57.22a13.169,13.169,0,0,0-8.571,3.707m-6.023,6.255H35.907A12.066,12.066,0,0,0,24.093,45.174V57.22H54.672V45.174A12.111,12.111,0,0,0,42.625,33.127M39.382,12.741c-4.633,0-8.108,4.17-8.108,8.571,0,4.633,3.475,8.8,8.108,8.8s8.108-4.17,8.108-8.8c0-4.4-3.475-8.571-8.108-8.571M60.7,2.78a8.312,8.312,0,0,0-8.108,8.571c0,4.633,3.475,8.8,8.108,8.8s8.108-4.17,8.108-8.8A8.312,8.312,0,0,0,60.7,2.78m-42.625,0c-4.865,0-8.108,3.938-8.108,8.571s3.243,8.8,8.108,8.8c4.633,0,8.108-4.17,8.108-8.8A8.312,8.312,0,0,0,18.07,2.78" fill="#86bc25" stroke="#fff" stroke-width="0.6"/>
  </g>
</svg>
