<svg id="linkedin" xmlns="http://www.w3.org/2000/svg" width="70.002" height="70" viewBox="0 0 70.002 70">
  <g id="Group_169" data-name="Group 169">
    <path id="Path_330" data-name="Path 330" d="M486.943,0H427.29a5.109,5.109,0,0,0-5.167,5.044V64.949A5.112,5.112,0,0,0,427.29,70h59.653a5.123,5.123,0,0,0,5.182-5.051V5.044A5.119,5.119,0,0,0,486.943,0Z" transform="translate(-422.123)" fill="#005491"/>
    <path id="Path_331" data-name="Path 331" d="M442.6,36.431h10.383V69.837H442.6Zm5.194-16.606a6.02,6.02,0,1,1-6.021,6.018,6.022,6.022,0,0,1,6.021-6.018" transform="translate(-432.22 -10.188)" fill="#fff"/>
    <path id="Path_332" data-name="Path 332" d="M478.229,53.107h9.958v4.565h.14a10.909,10.909,0,0,1,9.824-5.4c10.513,0,12.455,6.919,12.455,15.913V86.514H500.229V70.268c0-3.874-.071-8.857-5.4-8.857-5.4,0-6.231,4.22-6.231,8.577V86.514H478.229Z" transform="translate(-450.955 -26.865)" fill="#fff"/>
  </g>
</svg>
